<svg width="124" height="124" viewBox="0 0 124 124" fill="none" xmlns="http://www.w3.org/2000/svg">
<g clip-path="url(#clip0_2522_7071)">
<path d="M97.1659 109.139L76.475 113.113L71.084 94.5696L76.475 76.0261H80.6679C80.6679 76.0261 97.1659 82.967 97.1659 109.139Z" fill="#77718C"/>
<path d="M47.1244 76.0261L52.5155 94.5696L47.1244 113.113L26.4336 109.139C26.4336 82.967 42.9315 76.0261 42.9315 76.0261H47.1244Z" fill="#77718C"/>
<path d="M76.4732 76.0261V113.113L61.7981 116.316L47.123 113.113V76.0261H76.4732Z" fill="#EAEAEA"/>
<path d="M52.5156 114.289L56.9592 86.751H66.6401L71.0837 114.289H52.5156Z" fill="#FC5C70"/>
<path d="M55.8828 78.5129V86.4623C55.8828 89.7295 58.5313 92.3783 61.7989 92.3783C65.0664 92.3783 67.7149 89.7298 67.7149 86.4623V78.5129H55.8828Z" fill="#FF6F7F"/>
<path d="M14.8242 47.0801C14.8242 21.1783 35.897 0.105469 61.7989 0.105469C87.7007 0.105469 108.774 21.1783 108.774 47.0801H14.8242Z" fill="#77718C"/>
<path d="M31.4751 45.4542C31.4751 24.076 45.6966 6.02225 65.194 0.229067C64.0724 0.148492 62.9406 0.105469 61.7989 0.105469C35.897 0.105469 14.8242 21.1783 14.8242 47.0801H31.5062C31.4878 46.5402 31.4751 45.9988 31.4751 45.4542Z" fill="#6A647F"/>
<path d="M100.318 57.1753C105.893 57.1753 110.413 52.6556 110.413 47.0803C110.413 41.505 105.893 36.9854 100.318 36.9854C94.7423 36.9854 90.2227 41.505 90.2227 47.0803C90.2227 52.6556 94.7423 57.1753 100.318 57.1753Z" fill="#FFBD86"/>
<path d="M87.7861 18.9891C84.9045 16.3224 80.8111 15.453 77.0433 16.5577C72.5107 17.8864 67.3176 18.6409 61.7982 18.6409C56.2788 18.6409 51.0857 17.8861 46.5531 16.5577C42.7852 15.4532 38.6921 16.3224 35.8103 18.9891C28.2569 25.9795 23.5273 35.977 23.5273 47.0804C23.5273 68.2166 40.6617 82.8641 61.7979 82.8641C82.9342 82.8641 100.069 68.2166 100.069 47.0804C100.069 35.977 95.3395 25.9795 87.7861 18.9891Z" fill="#FED2A4"/>
<path d="M91.1445 43.707C91.1445 49.9205 86.0904 54.9773 79.8769 54.9773C73.6635 54.9773 68.6094 49.9205 68.6094 43.707C68.6094 37.4935 73.6635 32.4395 79.8769 32.4395C86.0904 32.4397 91.1445 37.4935 91.1445 43.707Z" fill="#FFD7B6"/>
<path d="M55.6207 43.7071C55.6207 50.2682 50.2839 55.6078 43.723 55.6078C37.1621 55.6078 31.8223 50.2682 31.8223 43.7071C31.8223 37.1459 37.1619 31.8093 43.723 31.8093C50.2841 31.8093 55.6207 37.1459 55.6207 43.7071Z" fill="#FFD7B6"/>
<path d="M43.9999 40.6909C42.9699 40.6909 42.1348 41.526 42.1348 42.5561V45.9763C42.1348 47.0063 42.9699 47.8414 43.9999 47.8414C45.03 47.8414 45.8651 47.0063 45.8651 45.9763V42.5561C45.8651 41.526 45.03 40.6909 43.9999 40.6909Z" fill="#423E4F"/>
<path d="M79.5976 40.6909C78.5673 40.6909 77.7324 41.526 77.7324 42.5561V45.9763C77.7324 47.0063 78.5673 47.8414 79.5976 47.8414C80.6279 47.8414 81.4627 47.0063 81.4627 45.9763V42.5561C81.4627 41.526 80.6276 40.6909 79.5976 40.6909Z" fill="#423E4F"/>
<path d="M67.1198 51.724C66.3426 51.0471 65.1646 51.1281 64.4881 51.9048C63.8095 52.6837 62.8296 53.1303 61.7998 53.1303C60.77 53.1303 59.7902 52.6837 59.1113 51.9048C58.4343 51.1281 57.2566 51.0473 56.4796 51.724C55.703 52.4007 55.6222 53.5787 56.2989 54.3554C57.6863 55.9475 59.6912 56.8607 61.7996 56.8607C63.908 56.8607 65.9126 55.9477 67.3001 54.3554C67.9772 53.579 67.8962 52.4007 67.1198 51.724Z" fill="#423E4F"/>
<path d="M46.7127 80.1724C37.3454 71.5508 31.4743 59.1891 31.4743 45.4545C31.4743 34.4113 35.2701 24.2551 41.6263 16.217C39.4841 16.5376 37.4508 17.4709 35.8102 18.9892C30.6012 23.8097 26.7361 30.061 24.8381 37.118C24.3519 37.032 23.8337 36.9852 23.2786 36.9852C17.7032 36.9852 13.1836 41.5049 13.1836 47.0805C13.1836 52.6558 17.7032 57.1754 23.2786 57.1754C23.8523 57.1754 24.3865 57.125 24.8869 57.0332C27.9803 67.9207 36.1104 76.1662 46.7127 80.1724Z" fill="#FFBD86"/>
<path d="M79.8761 29.6816C72.8979 29.6816 67.096 34.8046 66.0267 41.4844C64.6937 40.9397 63.2563 40.6513 61.799 40.6513C60.3392 40.6513 58.9018 40.9397 57.5688 41.4844C56.4994 34.8046 50.6975 29.6816 43.7218 29.6816C35.9877 29.6816 29.6934 35.9734 29.6934 43.7076C29.6934 51.4418 35.9877 57.7361 43.7218 57.7361C50.7871 57.7361 56.6462 52.4813 57.6061 45.6748C58.8371 44.8367 60.2994 44.3816 61.799 44.3816C63.2961 44.3816 64.7608 44.8367 65.9894 45.6748C66.9493 52.4813 72.8084 57.7361 79.8761 57.7361C87.6103 57.7361 93.9021 51.4418 93.9021 43.7076C93.9021 35.9734 87.6103 29.6816 79.8761 29.6816ZM43.7218 54.0058C38.0443 54.0058 33.4237 49.3852 33.4237 43.7076C33.4237 38.0301 38.0443 33.412 43.7218 33.412C49.3994 33.412 54.0175 38.0301 54.0175 43.7076C54.0175 49.3852 49.3994 54.0058 43.7218 54.0058ZM79.8761 54.0058C74.1986 54.0058 69.5804 49.3852 69.5804 43.7076C69.5804 38.0301 74.1986 33.412 79.8761 33.412C85.5536 33.412 90.1718 38.0301 90.1718 43.7076C90.1718 49.3852 85.5536 54.0058 79.8761 54.0058Z" fill="#423E4F"/>
<path d="M80.7021 95.0815C75.7408 95.0815 71.7188 99.1036 71.7188 104.065C71.7188 106.867 73.9903 109.138 76.7922 109.138L80.7021 112.732L84.612 109.138C87.414 109.138 89.6855 106.867 89.6855 104.065C89.6855 99.1036 85.6634 95.0815 80.7021 95.0815Z" fill="#FED2A4"/>
<path d="M42.8955 95.0815C47.8568 95.0815 51.8788 99.1036 51.8788 104.065C51.8788 106.867 49.6073 109.138 46.8053 109.138L42.8955 112.732L38.9856 109.138C36.1836 109.138 33.9121 106.867 33.9121 104.065C33.9121 99.1036 37.9341 95.0815 42.8955 95.0815Z" fill="#FED2A4"/>
<path d="M117.295 109.138H6.30325C2.82211 109.138 0 111.96 0 115.441V119.392C0 121.657 1.83606 123.493 4.10086 123.493H119.497C121.762 123.493 123.598 121.657 123.598 119.392V115.441C123.598 111.96 120.776 109.138 117.295 109.138Z" fill="#E8A882"/>
<path d="M19.7859 109.138H6.30325C2.82211 109.138 0 111.96 0 115.441V119.392C0 121.657 1.83606 123.493 4.10087 123.493H26.3316C23.0638 119.4 20.7654 114.5 19.7859 109.138Z" fill="#E3986D"/>
</g>
<defs>
<clipPath id="clip0_2522_7071">
<rect width="123.598" height="123.598" fill="white"/>
</clipPath>
</defs>
</svg>
