<svg width="15" height="15" viewBox="0 0 15 15" fill="none" xmlns="http://www.w3.org/2000/svg">
<path d="M11.9354 1.51561H10.9882V0.568353C10.9882 0.417617 10.9283 0.273054 10.8217 0.166467C10.7151 0.0598798 10.5705 0 10.4198 0C10.2691 0 10.1245 0.0598798 10.0179 0.166467C9.91134 0.273054 9.85146 0.417617 9.85146 0.568353V1.51561H4.92573V0.568353C4.92573 0.417617 4.86585 0.273054 4.75926 0.166467C4.65267 0.0598798 4.50811 0 4.35738 0C4.20664 0 4.06208 0.0598798 3.95549 0.166467C3.8489 0.273054 3.78902 0.417617 3.78902 0.568353V1.51561H2.84177C2.08833 1.51641 1.36598 1.81607 0.83322 2.34883C0.30046 2.88159 0.000802383 3.60394 0 4.35738V11.9354C0.000802383 12.6889 0.30046 13.4112 0.83322 13.944C1.36598 14.4767 2.08833 14.7764 2.84177 14.7772H11.9354C12.6889 14.7764 13.4112 14.4767 13.944 13.944C14.4767 13.4112 14.7764 12.6889 14.7772 11.9354V4.35738C14.7764 3.60394 14.4767 2.88159 13.944 2.34883C13.4112 1.81607 12.6889 1.51641 11.9354 1.51561ZM13.6405 11.9354C13.6405 12.8751 12.8751 13.6405 11.9354 13.6405H2.84177C1.90209 13.6405 1.13671 12.8751 1.13671 11.9354V7.19914H13.6405V11.9354ZM13.6405 6.06243H1.13671V4.35738C1.13671 3.4177 1.90209 2.65232 2.84177 2.65232H3.78902V3.59957C3.78902 3.75031 3.8489 3.89487 3.95549 4.00146C4.06208 4.10804 4.20664 4.16792 4.35738 4.16792C4.50811 4.16792 4.65267 4.10804 4.75926 4.00146C4.86585 3.89487 4.92573 3.75031 4.92573 3.59957V2.65232H9.85146V3.59957C9.85146 3.75031 9.91134 3.89487 10.0179 4.00146C10.1245 4.10804 10.2691 4.16792 10.4198 4.16792C10.5705 4.16792 10.7151 4.10804 10.8217 4.00146C10.9283 3.89487 10.9882 3.75031 10.9882 3.59957V2.65232H11.9354C12.8751 2.65232 13.6405 3.4177 13.6405 4.35738V6.06243ZM2.08396 9.2831V8.5253C2.08396 8.42481 2.12388 8.32843 2.19494 8.25737C2.266 8.18632 2.36237 8.1464 2.46286 8.1464H3.22067C3.32116 8.1464 3.41753 8.18632 3.48859 8.25737C3.55965 8.32843 3.59957 8.42481 3.59957 8.5253V9.2831C3.59957 9.38359 3.55965 9.47997 3.48859 9.55103C3.41753 9.62209 3.32116 9.66201 3.22067 9.66201H2.46286C2.36237 9.66201 2.266 9.62209 2.19494 9.55103C2.12388 9.47997 2.08396 9.38359 2.08396 9.2831Z" fill="#FF8F27"/>
</svg>
