<svg width="335" height="301" viewBox="0 0 335 301" fill="none" xmlns="http://www.w3.org/2000/svg">
<g clip-path="url(#clip0_2522_9980)">
<path fill-rule="evenodd" clip-rule="evenodd" d="M178.195 260.988C158.548 260.988 139.342 255.162 123.006 244.247C106.67 233.332 93.9378 217.817 86.4192 199.666C78.9006 181.514 76.9332 161.541 80.7662 142.271C84.5991 123.002 94.0602 105.301 107.953 91.4088C121.845 77.5162 139.546 68.0552 158.815 64.2222C178.085 60.3892 198.058 62.3564 216.21 69.875C234.361 77.3936 249.876 90.126 260.791 106.462C271.707 122.798 277.533 142.004 277.533 161.651C277.533 187.997 267.067 213.264 248.437 231.893C229.808 250.523 204.541 260.988 178.195 260.988ZM121.95 184.052C119.814 181.892 118.616 178.977 118.616 175.939C118.616 172.901 119.814 169.986 121.95 167.826L127.798 162.012C128.792 161.008 129.978 160.215 131.285 159.679C132.592 159.142 133.994 158.874 135.406 158.89C136.819 158.906 138.214 159.205 139.509 159.77C140.804 160.336 141.972 161.155 142.943 162.181L153.275 172.899C153.767 173.419 154.36 173.833 155.018 174.116C155.676 174.399 156.385 174.545 157.101 174.545C157.817 174.545 158.525 174.399 159.183 174.116C159.841 173.833 160.434 173.419 160.927 172.899L213.576 118.628C214.555 117.595 215.732 116.771 217.038 116.205C218.343 115.639 219.75 115.344 221.173 115.335C222.595 115.327 224.005 115.606 225.317 116.157C226.629 116.707 227.816 117.517 228.807 118.539L234.486 124.28C236.57 126.431 237.736 129.308 237.736 132.303C237.736 135.298 236.57 138.176 234.486 140.326L164.589 211.356C163.614 212.366 162.447 213.171 161.156 213.723C159.865 214.276 158.477 214.565 157.073 214.575C155.67 214.584 154.278 214.313 152.98 213.777C151.683 213.242 150.505 212.452 149.516 211.455L121.95 184.052Z" fill="url(#paint0_linear_2522_9980)"/>
<path d="M257.128 88.0872C261.873 88.0872 265.72 84.2408 265.72 79.4959C265.72 74.751 261.873 70.9045 257.128 70.9045C252.384 70.9045 248.537 74.751 248.537 79.4959C248.537 84.2408 252.384 88.0872 257.128 88.0872Z" fill="url(#paint1_linear_2522_9980)"/>
</g>
<path d="M125.719 300.564C129.168 300.671 132.047 297.873 132.15 294.316C132.253 290.759 129.541 287.789 126.092 287.683C122.643 287.577 119.764 290.374 119.661 293.931C119.558 297.488 122.27 300.458 125.719 300.564Z" fill="url(#paint2_linear_2522_9980)"/>
<path d="M188.456 296.402C192.482 296.402 195.745 293.036 195.745 288.884C195.745 284.733 192.482 281.367 188.456 281.367C184.431 281.367 181.168 284.733 181.168 288.884C181.168 293.036 184.431 296.402 188.456 296.402Z" fill="url(#paint3_linear_2522_9980)"/>
<path d="M253.011 267.406C255.886 267.406 258.217 265.002 258.217 262.037C258.217 259.071 255.886 256.667 253.011 256.667C250.135 256.667 247.805 259.071 247.805 262.037C247.805 265.002 250.135 267.406 253.011 267.406Z" fill="url(#paint4_linear_2522_9980)"/>
<path d="M91.6264 273.85C96.2267 273.85 99.956 270.003 99.956 265.258C99.956 260.513 96.2267 256.667 91.6264 256.667C87.0261 256.667 83.2969 260.513 83.2969 265.258C83.2969 270.003 87.0261 273.85 91.6264 273.85Z" fill="url(#paint5_linear_2522_9980)"/>
<path d="M24.4691 216.932C28.7819 216.932 32.2781 213.326 32.2781 208.877C32.2781 204.429 28.7819 200.823 24.4691 200.823C20.1564 200.823 16.6602 204.429 16.6602 208.877C16.6602 213.326 20.1564 216.932 24.4691 216.932Z" fill="url(#paint6_linear_2522_9980)"/>
<path d="M279.04 230.893C282.49 230.893 285.287 228.008 285.287 224.449C285.287 220.891 282.49 218.006 279.04 218.006C275.59 218.006 272.793 220.891 272.793 224.449C272.793 228.008 275.59 230.893 279.04 230.893Z" fill="url(#paint7_linear_2522_9980)"/>
<path d="M325.894 218.006C330.494 218.006 334.224 214.159 334.224 209.414C334.224 204.669 330.494 200.823 325.894 200.823C321.294 200.823 317.564 204.669 317.564 209.414C317.564 214.159 321.294 218.006 325.894 218.006Z" fill="url(#paint8_linear_2522_9980)"/>
<path d="M283.206 173.975C286.081 173.975 288.412 171.571 288.412 168.605C288.412 165.64 286.081 163.235 283.206 163.235C280.331 163.235 278 165.64 278 168.605C278 171.571 280.331 173.975 283.206 173.975Z" fill="url(#paint9_linear_2522_9980)"/>
<path d="M277.999 150.349C282.6 150.349 286.329 146.502 286.329 141.757C286.329 137.013 282.6 133.166 277.999 133.166C273.399 133.166 269.67 137.013 269.67 141.757C269.67 146.502 273.399 150.349 277.999 150.349Z" fill="url(#paint10_linear_2522_9980)"/>
<path d="M306.112 111.688C308.987 111.688 311.318 109.284 311.318 106.318C311.318 103.353 308.987 100.949 306.112 100.949C303.237 100.949 300.906 103.353 300.906 106.318C300.906 109.284 303.237 111.688 306.112 111.688Z" fill="url(#paint11_linear_2522_9980)"/>
<path d="M294.658 88.0614C299.258 88.0614 302.987 84.2149 302.987 79.47C302.987 74.7251 299.258 70.8786 294.658 70.8786C290.057 70.8786 286.328 74.7251 286.328 79.47C286.328 84.2149 290.057 88.0614 294.658 88.0614Z" fill="url(#paint12_linear_2522_9980)"/>
<path d="M18.7413 265.258C22.1915 265.258 24.9885 262.373 24.9885 258.815C24.9885 255.256 22.1915 252.371 18.7413 252.371C15.2911 252.371 12.4941 255.256 12.4941 258.815C12.4941 262.373 15.2911 265.258 18.7413 265.258Z" fill="url(#paint13_linear_2522_9980)"/>
<path d="M255.093 60.1394C259.118 60.1394 262.381 56.7737 262.381 52.622C262.381 48.4702 259.118 45.1045 255.093 45.1045C251.068 45.1045 247.805 48.4702 247.805 52.622C247.805 56.7737 251.068 60.1394 255.093 60.1394Z" fill="url(#paint14_linear_2522_9980)"/>
<path d="M263.944 40.8088C268.257 40.8088 271.753 37.2027 271.753 32.7544C271.753 28.3061 268.257 24.7 263.944 24.7C259.631 24.7 256.135 28.3061 256.135 32.7544C256.135 37.2027 259.631 40.8088 263.944 40.8088Z" fill="url(#paint15_linear_2522_9980)"/>
<path d="M188.456 10.7392C191.331 10.7392 193.662 8.33519 193.662 5.36964C193.662 2.4041 191.331 4.57764e-05 188.456 4.57764e-05C185.581 4.57764e-05 183.25 2.4041 183.25 5.36964C183.25 8.33519 185.581 10.7392 188.456 10.7392Z" fill="url(#paint16_linear_2522_9980)"/>
<path d="M90.5829 44.0308C93.4581 44.0308 95.7889 41.6268 95.7889 38.6612C95.7889 35.6957 93.4581 33.2916 90.5829 33.2916C87.7077 33.2916 85.377 35.6957 85.377 38.6612C85.377 41.6268 87.7077 44.0308 90.5829 44.0308Z" fill="url(#paint17_linear_2522_9980)"/>
<path d="M123.902 60.1395C127.927 60.1395 131.19 56.7738 131.19 52.622C131.19 48.4703 127.927 45.1046 123.902 45.1046C119.876 45.1046 116.613 48.4703 116.613 52.622C116.613 56.7738 119.876 60.1395 123.902 60.1395Z" fill="url(#paint18_linear_2522_9980)"/>
<path d="M61.4308 57.9916C64.881 57.9916 67.6779 55.1068 67.6779 51.5481C67.6779 47.9895 64.881 45.1046 61.4308 45.1046C57.9805 45.1046 55.1836 47.9895 55.1836 51.5481C55.1836 55.1068 57.9805 57.9916 61.4308 57.9916Z" fill="url(#paint19_linear_2522_9980)"/>
<path d="M37.4819 17.1827C42.0822 17.1827 45.8115 13.3362 45.8115 8.59135C45.8115 3.84648 42.0822 0 37.4819 0C32.8816 0 29.1523 3.84648 29.1523 8.59135C29.1523 13.3362 32.8816 17.1827 37.4819 17.1827Z" fill="url(#paint20_linear_2522_9980)"/>
<path d="M7.80897 108.466C12.1217 108.466 15.6179 104.86 15.6179 100.411C15.6179 95.9629 12.1217 92.3569 7.80897 92.3569C3.49619 92.3569 0 95.9629 0 100.411C0 104.86 3.49619 108.466 7.80897 108.466Z" fill="url(#paint21_linear_2522_9980)"/>
<path d="M43.7314 135.314C46.6066 135.314 48.9373 132.91 48.9373 129.944C48.9373 126.978 46.6066 124.574 43.7314 124.574C40.8562 124.574 38.5254 126.978 38.5254 129.944C38.5254 132.91 40.8562 135.314 43.7314 135.314Z" fill="url(#paint22_linear_2522_9980)"/>
<path d="M54.1421 189.01C58.7424 189.01 62.4716 185.163 62.4716 180.419C62.4716 175.674 58.7424 171.827 54.1421 171.827C49.5418 171.827 45.8125 175.674 45.8125 180.419C45.8125 185.163 49.5418 189.01 54.1421 189.01Z" fill="url(#paint23_linear_2522_9980)"/>
<path d="M171.798 35.4392C174.673 35.4392 177.004 33.0351 177.004 30.0696C177.004 27.104 174.673 24.7 171.798 24.7C168.923 24.7 166.592 27.104 166.592 30.0696C166.592 33.0351 168.923 35.4392 171.798 35.4392Z" fill="url(#paint24_linear_2522_9980)"/>
<path d="M189.497 57.9916C192.947 57.9916 195.744 55.1067 195.744 51.5481C195.744 47.9894 192.947 45.1045 189.497 45.1045C186.047 45.1045 183.25 47.9894 183.25 51.5481C183.25 55.1067 186.047 57.9916 189.497 57.9916Z" fill="url(#paint25_linear_2522_9980)"/>
<defs>
<linearGradient id="paint0_linear_2522_9980" x1="270.68" y1="260.988" x2="208.685" y2="38.1978" gradientUnits="userSpaceOnUse">
<stop stop-color="#123499"/>
<stop offset="1" stop-color="#093CD4"/>
</linearGradient>
<linearGradient id="paint1_linear_2522_9980" x1="265.127" y1="88.0872" x2="259.765" y2="68.8189" gradientUnits="userSpaceOnUse">
<stop stop-color="#123499"/>
<stop offset="1" stop-color="#093CD4"/>
</linearGradient>
<linearGradient id="paint2_linear_2522_9980" x1="131.533" y1="300.744" x2="127.845" y2="286.232" gradientUnits="userSpaceOnUse">
<stop stop-color="#123499"/>
<stop offset="1" stop-color="#093CD4"/>
</linearGradient>
<linearGradient id="paint3_linear_2522_9980" x1="195.242" y1="296.402" x2="190.425" y2="279.619" gradientUnits="userSpaceOnUse">
<stop stop-color="#123499"/>
<stop offset="1" stop-color="#093CD4"/>
</linearGradient>
<linearGradient id="paint4_linear_2522_9980" x1="257.858" y1="267.406" x2="254.417" y2="255.418" gradientUnits="userSpaceOnUse">
<stop stop-color="#123499"/>
<stop offset="1" stop-color="#093CD4"/>
</linearGradient>
<linearGradient id="paint5_linear_2522_9980" x1="99.3815" y1="273.85" x2="93.8764" y2="254.669" gradientUnits="userSpaceOnUse">
<stop stop-color="#123499"/>
<stop offset="1" stop-color="#093CD4"/>
</linearGradient>
<linearGradient id="paint6_linear_2522_9980" x1="31.7395" y1="216.932" x2="26.5785" y2="198.95" gradientUnits="userSpaceOnUse">
<stop stop-color="#123499"/>
<stop offset="1" stop-color="#093CD4"/>
</linearGradient>
<linearGradient id="paint7_linear_2522_9980" x1="284.856" y1="230.893" x2="280.728" y2="216.508" gradientUnits="userSpaceOnUse">
<stop stop-color="#123499"/>
<stop offset="1" stop-color="#093CD4"/>
</linearGradient>
<linearGradient id="paint8_linear_2522_9980" x1="333.649" y1="218.006" x2="328.144" y2="198.825" gradientUnits="userSpaceOnUse">
<stop stop-color="#123499"/>
<stop offset="1" stop-color="#093CD4"/>
</linearGradient>
<linearGradient id="paint9_linear_2522_9980" x1="288.053" y1="173.975" x2="284.612" y2="161.987" gradientUnits="userSpaceOnUse">
<stop stop-color="#123499"/>
<stop offset="1" stop-color="#093CD4"/>
</linearGradient>
<linearGradient id="paint10_linear_2522_9980" x1="285.755" y1="150.349" x2="280.249" y2="131.168" gradientUnits="userSpaceOnUse">
<stop stop-color="#123499"/>
<stop offset="1" stop-color="#093CD4"/>
</linearGradient>
<linearGradient id="paint11_linear_2522_9980" x1="310.959" y1="111.688" x2="307.518" y2="99.7" gradientUnits="userSpaceOnUse">
<stop stop-color="#123499"/>
<stop offset="1" stop-color="#093CD4"/>
</linearGradient>
<linearGradient id="paint12_linear_2522_9980" x1="302.413" y1="88.0614" x2="296.908" y2="68.881" gradientUnits="userSpaceOnUse">
<stop stop-color="#123499"/>
<stop offset="1" stop-color="#093CD4"/>
</linearGradient>
<linearGradient id="paint13_linear_2522_9980" x1="24.5576" y1="265.258" x2="20.4288" y2="250.873" gradientUnits="userSpaceOnUse">
<stop stop-color="#123499"/>
<stop offset="1" stop-color="#093CD4"/>
</linearGradient>
<linearGradient id="paint14_linear_2522_9980" x1="261.879" y1="60.1394" x2="257.062" y2="43.3566" gradientUnits="userSpaceOnUse">
<stop stop-color="#123499"/>
<stop offset="1" stop-color="#093CD4"/>
</linearGradient>
<linearGradient id="paint15_linear_2522_9980" x1="271.214" y1="40.8088" x2="266.053" y2="22.8272" gradientUnits="userSpaceOnUse">
<stop stop-color="#123499"/>
<stop offset="1" stop-color="#093CD4"/>
</linearGradient>
<linearGradient id="paint16_linear_2522_9980" x1="193.303" y1="10.7392" x2="189.862" y2="-1.2485" gradientUnits="userSpaceOnUse">
<stop stop-color="#123499"/>
<stop offset="1" stop-color="#093CD4"/>
</linearGradient>
<linearGradient id="paint17_linear_2522_9980" x1="95.4298" y1="44.0308" x2="91.9892" y2="32.0431" gradientUnits="userSpaceOnUse">
<stop stop-color="#123499"/>
<stop offset="1" stop-color="#093CD4"/>
</linearGradient>
<linearGradient id="paint18_linear_2522_9980" x1="130.687" y1="60.1395" x2="125.87" y2="43.3566" gradientUnits="userSpaceOnUse">
<stop stop-color="#123499"/>
<stop offset="1" stop-color="#093CD4"/>
</linearGradient>
<linearGradient id="paint19_linear_2522_9980" x1="67.247" y1="57.9916" x2="63.1182" y2="43.6063" gradientUnits="userSpaceOnUse">
<stop stop-color="#123499"/>
<stop offset="1" stop-color="#093CD4"/>
</linearGradient>
<linearGradient id="paint20_linear_2522_9980" x1="45.2369" y1="17.1827" x2="39.7319" y2="-1.99767" gradientUnits="userSpaceOnUse">
<stop stop-color="#123499"/>
<stop offset="1" stop-color="#093CD4"/>
</linearGradient>
<linearGradient id="paint21_linear_2522_9980" x1="15.0793" y1="108.466" x2="9.91832" y2="90.484" gradientUnits="userSpaceOnUse">
<stop stop-color="#123499"/>
<stop offset="1" stop-color="#093CD4"/>
</linearGradient>
<linearGradient id="paint22_linear_2522_9980" x1="48.5783" y1="135.314" x2="45.1376" y2="123.326" gradientUnits="userSpaceOnUse">
<stop stop-color="#123499"/>
<stop offset="1" stop-color="#093CD4"/>
</linearGradient>
<linearGradient id="paint23_linear_2522_9980" x1="61.8971" y1="189.01" x2="56.392" y2="169.829" gradientUnits="userSpaceOnUse">
<stop stop-color="#123499"/>
<stop offset="1" stop-color="#093CD4"/>
</linearGradient>
<linearGradient id="paint24_linear_2522_9980" x1="176.645" y1="35.4392" x2="173.204" y2="23.4514" gradientUnits="userSpaceOnUse">
<stop stop-color="#123499"/>
<stop offset="1" stop-color="#093CD4"/>
</linearGradient>
<linearGradient id="paint25_linear_2522_9980" x1="195.313" y1="57.9916" x2="191.185" y2="43.6063" gradientUnits="userSpaceOnUse">
<stop stop-color="#123499"/>
<stop offset="1" stop-color="#093CD4"/>
</linearGradient>
<clipPath id="clip0_2522_9980">
<rect width="198.675" height="198.675" fill="white" transform="translate(78.8574 62.3134)"/>
</clipPath>
</defs>
</svg>
