<svg width="108" height="113" viewBox="0 0 108 113" fill="none" xmlns="http://www.w3.org/2000/svg">
<path d="M37.638 80.522L46.8986 98.3403L37.638 112.214H15.1641C15.1641 86.088 34.2785 80.522 34.2785 80.522H37.638Z" fill="#FFA875"/>
<path d="M92.7384 112.214H70.267L63.7441 99.4658L70.267 80.522H73.8088C73.8088 80.522 92.7384 86.088 92.7384 112.214Z" fill="#FFA875"/>
<path d="M37.6387 80.522H70.266V112.214H37.6387V80.522Z" fill="#81DDFD"/>
<path d="M2.66016 46.5672C2.66016 20.8899 25.6695 0 53.9516 0C82.2336 0 105.243 20.8899 105.243 46.5672H2.66016Z" fill="#827F98"/>
<path d="M11.6156 46.5671H2.65988C2.65988 51.6441 1.63131 55.6763 0.532854 58.5347C-0.920975 62.3184 0.674855 66.5159 4.4089 68.6529C8.6458 71.0778 15.0468 73.4533 23.8652 73.4533L11.6156 46.5671Z" fill="#77718C"/>
<path d="M96.2867 46.5671H105.242C105.242 51.6441 106.271 55.6763 107.37 58.5347C108.823 62.3184 107.228 66.5159 103.493 68.6529C99.2566 71.0778 92.8556 73.4533 84.0371 73.4533L96.2867 46.5671Z" fill="#827F98"/>
<path d="M21.3787 44.6718C21.3787 26.5002 31.1886 10.4107 46.2604 0.523682C21.6137 3.90297 2.66016 23.2629 2.66016 46.5671H21.4187C21.3951 45.9376 21.3787 45.3065 21.3787 44.6718Z" fill="#77718C"/>
<path d="M96.7991 56.136C102.337 56.136 106.827 52.06 106.827 47.032C106.827 42.004 102.337 37.928 96.7991 37.928C91.261 37.928 86.7715 42.004 86.7715 47.032C86.7715 52.06 91.261 56.136 96.7991 56.136Z" fill="#FFCABD"/>
<path d="M37.6387 80.522V86.885C37.6387 90.9748 41.2904 94.29 45.7949 94.29C50.2996 94.29 53.9511 90.9746 53.9511 86.885V80.522H37.6387Z" fill="white"/>
<path d="M70.2636 80.522V86.885C70.2636 90.9748 66.6119 94.29 62.1074 94.29C57.6027 94.29 53.9512 90.9746 53.9512 86.885V80.522H70.2636Z" fill="white"/>
<path d="M38.2155 81.6324L37.6383 80.522H34.2785C34.2785 80.522 15.1641 86.0882 15.1641 112.214H19.256C20.6501 99.7435 27.782 88.8145 38.2155 81.6324Z" fill="#FF995D"/>
<path d="M95.3482 38.4907C94.4977 34.8847 90.7729 32.4627 86.7414 32.9132C59.6493 35.94 41.9992 27.2765 32.7025 20.5213C29.4469 18.1558 24.7009 18.5263 21.9676 21.3852C15.5189 28.13 11.6152 36.9344 11.6152 46.5669C11.6152 67.7749 31.092 85.2457 54.45 85.0008C77.6014 84.7578 96.2863 67.6435 96.2863 46.5671C96.2863 43.7966 95.9625 41.0948 95.3482 38.4907Z" fill="#FFDCCE"/>
<path d="M37.7037 82.0028C27.5833 72.2569 21.3781 59.1227 21.3781 44.6715C21.3781 35.3841 23.9425 26.6418 28.4597 18.9916C26.0775 18.816 23.6444 19.6315 21.968 21.3849C17.4816 26.0772 14.2293 31.7667 12.6638 38.0378C12.1552 37.9657 11.6345 37.9276 11.1038 37.9276C5.56574 37.9276 1.07617 42.0036 1.07617 47.0316C1.07617 52.0595 5.56574 56.1356 11.1038 56.1356C11.7267 56.1356 12.3353 56.0814 12.9267 55.9827C16.2471 67.7033 25.5946 77.3519 37.7037 82.0028Z" fill="#FFCABD"/>
<path d="M28.8898 60.9892C33.9969 60.9892 38.137 57.9958 38.137 54.3033C38.137 50.6108 33.9969 47.6174 28.8898 47.6174C23.7827 47.6174 19.6426 50.6108 19.6426 54.3033C19.6426 57.9958 23.7827 60.9892 28.8898 60.9892Z" fill="#FFA0AB"/>
<path d="M79.0128 60.9892C84.1199 60.9892 88.26 57.9958 88.26 54.3033C88.26 50.6108 84.1199 47.6174 79.0128 47.6174C73.9057 47.6174 69.7656 50.6108 69.7656 54.3033C69.7656 57.9958 73.9057 60.9892 79.0128 60.9892Z" fill="#FFA0AB"/>
<path d="M34.2792 49.5608C33.2492 49.5608 32.4141 48.8026 32.4141 47.8674V44.4353C32.4141 43.5001 33.2492 42.7419 34.2792 42.7419C35.3093 42.7419 36.1444 43.5001 36.1444 44.4353V47.8674C36.1444 48.8026 35.3093 49.5608 34.2792 49.5608Z" fill="#423E4F"/>
<path d="M73.623 49.5608C72.5927 49.5608 71.7578 48.8026 71.7578 47.8674V44.4353C71.7578 43.5001 72.5927 42.7419 73.623 42.7419C74.6533 42.7419 75.4881 43.5001 75.4881 44.4353V47.8674C75.4881 48.8026 74.6533 49.5608 73.623 49.5608Z" fill="#423E4F"/>
<path d="M53.9522 51.6038C51.4253 51.6038 49.0222 50.6101 47.3595 48.8777C46.6826 48.1726 46.7636 47.103 47.5405 46.4885C48.3169 45.8741 49.4952 45.9475 50.1719 46.6526C51.1261 47.6467 52.5038 48.2168 53.9522 48.2168C55.4003 48.2168 56.778 47.6465 57.7325 46.6524C58.4097 45.9473 59.5874 45.8739 60.3641 46.4885C61.1407 47.1028 61.2216 48.1726 60.5449 48.8777C58.8817 50.6101 56.4789 51.6038 53.9522 51.6038Z" fill="#423E4F"/>
<path d="M24.5605 112.214V101.159C24.5605 100.224 25.3956 99.4656 26.4257 99.4656C27.4558 99.4656 28.2909 100.224 28.2909 101.159V112.214H24.5605Z" fill="#FF995D"/>
<path d="M79.6113 112.214V101.159C79.6113 100.224 80.4462 99.4656 81.4765 99.4656C82.5068 99.4656 83.3416 100.224 83.3416 101.159V112.214H79.6113Z" fill="#FF995D"/>
<path d="M53.9515 100.648C54.9483 100.648 55.7564 99.9146 55.7564 99.0096C55.7564 98.1045 54.9483 97.3708 53.9515 97.3708C52.9546 97.3708 52.1465 98.1045 52.1465 99.0096C52.1465 99.9146 52.9546 100.648 53.9515 100.648Z" fill="white"/>
<path d="M53.9515 107.433C54.9483 107.433 55.7564 106.699 55.7564 105.794C55.7564 104.889 54.9483 104.156 53.9515 104.156C52.9546 104.156 52.1465 104.889 52.1465 105.794C52.1465 106.699 52.9546 107.433 53.9515 107.433Z" fill="white"/>
</svg>
