<svg width="44" height="44" viewBox="0 0 44 44" fill="none" xmlns="http://www.w3.org/2000/svg">
<path d="M21.8799 43.7598C33.9638 43.7598 43.7598 33.9638 43.7598 21.8799C43.7598 9.79596 33.9638 0 21.8799 0C9.79596 0 0 9.79596 0 21.8799C0 33.9638 9.79596 43.7598 21.8799 43.7598Z" fill="#0B69C7"/>
<path d="M16.9864 13.9256C16.987 14.5169 16.8121 15.095 16.484 15.5869C16.1559 16.0788 15.6892 16.4622 15.143 16.6888C14.5969 16.9153 13.9958 16.9747 13.4158 16.8595C12.8359 16.7443 12.3031 16.4596 11.885 16.0415C11.4669 15.6234 11.1823 15.0907 11.067 14.5107C10.9518 13.9308 11.0113 13.3297 11.2378 12.7835C11.4643 12.2374 11.8478 11.7707 12.3397 11.4426C12.8315 11.1144 13.4097 10.9396 14.001 10.9401C14.7925 10.9409 15.5515 11.2557 16.1112 11.8154C16.6709 12.3751 16.9857 13.134 16.9864 13.9256Z" fill="white"/>
<path d="M15.5731 18.158H12.4293C12.0207 18.158 11.6895 18.4892 11.6895 18.8978V32.0805C11.6895 32.4891 12.0207 32.8204 12.4293 32.8204H15.5731C15.9818 32.8204 16.313 32.4891 16.313 32.0805V18.8978C16.313 18.4892 15.9818 18.158 15.5731 18.158Z" fill="white"/>
<path d="M32.7489 25.7579V32.1405C32.7489 32.3207 32.6773 32.4935 32.5499 32.6209C32.4225 32.7483 32.2497 32.8199 32.0695 32.8199H28.6954C28.5152 32.8199 28.3424 32.7483 28.2149 32.6209C28.0875 32.4935 28.0159 32.3207 28.0159 32.1405V25.9565C28.0159 25.0324 28.2837 21.926 25.6034 21.926C23.5248 21.926 23.1016 24.0622 23.0123 25.0209V32.1549C23.0086 32.3316 22.9362 32.4999 22.8104 32.624C22.6846 32.7482 22.5154 32.8185 22.3387 32.8199H19.074C18.9846 32.8203 18.8961 32.803 18.8135 32.769C18.7309 32.735 18.6559 32.6849 18.5927 32.6218C18.5295 32.5586 18.4795 32.4835 18.4455 32.4009C18.4115 32.3183 18.3942 32.2298 18.3945 32.1405V18.8398C18.3942 18.7504 18.4115 18.6617 18.4454 18.5789C18.4794 18.4962 18.5294 18.4209 18.5925 18.3575C18.6556 18.2941 18.7307 18.2438 18.8133 18.2095C18.8959 18.1752 18.9845 18.1575 19.074 18.1575H22.3387C22.4292 18.156 22.5192 18.1725 22.6033 18.2061C22.6874 18.2397 22.764 18.2897 22.8286 18.3532C22.8932 18.4167 22.9445 18.4925 22.9795 18.576C23.0145 18.6596 23.0325 18.7492 23.0325 18.8398V19.9914C23.8041 18.8398 24.9499 17.9416 27.3883 17.9416C32.7806 17.9387 32.7489 22.9855 32.7489 25.7579Z" fill="white"/>
</svg>
