<svg width="26" height="32" viewBox="0 0 26 32" fill="none" xmlns="http://www.w3.org/2000/svg">
<path d="M20.6349 20.092C20.5058 20.0952 20.382 20.1413 20.2851 20.222C18.6716 21.5625 16.6958 22.4516 14.5787 22.7899C14.4969 22.8032 14.4194 22.8336 14.3518 22.8791C14.2842 22.9246 14.2284 22.9839 14.1883 23.0527C14.1483 23.1214 14.1252 23.1978 14.1206 23.2762C14.1161 23.3545 14.1303 23.4328 14.1622 23.5053L17.4881 31.006C17.5309 31.1007 17.6023 31.1813 17.6934 31.2377C17.7845 31.2941 17.8912 31.3237 18.0001 31.3229C18.1089 31.3221 18.2151 31.2908 18.3052 31.233C18.3953 31.1752 18.4653 31.0935 18.5065 30.9981L20.031 27.4015L23.888 28.8657C23.9888 28.9034 24.0991 28.912 24.2051 28.8907C24.3111 28.8694 24.4081 28.8191 24.484 28.746C24.56 28.6728 24.6115 28.5801 24.6322 28.4795C24.6528 28.3788 24.6417 28.2746 24.6002 28.1799L21.1577 20.4112C21.1146 20.3144 21.0416 20.2322 20.9484 20.1753C20.8551 20.1183 20.7459 20.0893 20.6349 20.092ZM4.18852 20.4171L0.748038 28.1819C0.70623 28.2768 0.69497 28.3813 0.715671 28.4823C0.736371 28.5832 0.78811 28.6762 0.864399 28.7494C0.940688 28.8226 1.03813 28.8729 1.14451 28.894C1.25089 28.915 1.36146 28.9059 1.46237 28.8677L5.3173 27.4015L6.84177 30.9981C7.02712 31.4317 7.67065 31.4356 7.86225 31.006L11.1903 23.4974C11.2221 23.425 11.2363 23.3466 11.2318 23.2683C11.2273 23.1899 11.2041 23.1135 11.1641 23.0448C11.1241 22.9761 11.0682 22.9167 11.0006 22.8713C10.933 22.8258 10.8555 22.7953 10.7737 22.782C8.65581 22.4481 6.67784 21.5631 5.06113 20.226C4.99531 20.1714 4.91674 20.1325 4.83188 20.1123C4.74703 20.0922 4.65832 20.0914 4.57309 20.1101C4.48786 20.1288 4.40854 20.1664 4.34168 20.2197C4.27481 20.2731 4.22232 20.3408 4.18852 20.4171Z" fill="#FF5757"/>
<path d="M12.6769 0C5.68346 0 0 5.3762 0 11.994C0 18.6118 5.68137 23.984 12.6748 23.984C19.6682 23.984 25.3496 18.6118 25.3496 11.994C25.3496 5.3762 19.6703 0 12.6769 0Z" fill="#FFCB3C"/>
<path d="M12.6782 2.60158C10.048 2.60419 7.52646 3.59431 5.66706 5.35457C3.80766 7.11483 2.7624 9.50137 2.76074 11.9902C2.76074 17.1674 7.20713 21.3749 12.6782 21.3749C18.1492 21.3749 22.5956 17.1674 22.5956 11.9902C22.5945 9.50103 21.5494 7.11399 19.69 5.3533C17.8305 3.59261 15.3087 2.60419 12.6782 2.60158Z" fill="#FFEA54"/>
<path d="M12.6753 6.00312C12.5699 6.01045 12.4688 6.04629 12.3843 6.10638C12.2997 6.16647 12.2352 6.24829 12.1984 6.34209L10.7406 10.0018L6.6024 10.12C6.49019 10.1242 6.382 10.1607 6.29228 10.2246C6.20255 10.2885 6.13556 10.3768 6.10025 10.4777C6.06495 10.5785 6.063 10.6872 6.09467 10.7892C6.12635 10.8911 6.19013 10.9815 6.27752 11.0482L9.49932 13.4998L8.34555 17.2561C8.31431 17.3586 8.31699 17.4677 8.35323 17.5687C8.38947 17.6697 8.45753 17.7578 8.54826 17.8211C8.63899 17.8844 8.74803 17.92 8.86072 17.9229C8.97341 17.9258 9.08435 17.896 9.1786 17.8375L12.6316 15.6893L16.0533 17.8907C16.1466 17.9503 16.257 17.9814 16.3696 17.98C16.4821 17.9785 16.5916 17.9445 16.6831 17.8825C16.7747 17.8205 16.844 17.7335 16.8819 17.6332C16.9197 17.5328 16.9241 17.424 16.8947 17.3211L15.8096 13.5432L19.0752 11.1487C19.1649 11.0837 19.2313 10.9942 19.2655 10.8923C19.2997 10.7904 19.3 10.681 19.2664 10.5789C19.2328 10.4768 19.1668 10.3869 19.0775 10.3214C18.9882 10.2559 18.8798 10.218 18.767 10.2126L14.6309 10.0313L13.2314 6.34603C13.1909 6.23916 13.1147 6.14769 13.0144 6.08546C12.914 6.02323 12.795 5.9956 12.6753 6.00312Z" fill="#FEAA2B"/>
</svg>
