<svg width="21" height="19" viewBox="0 0 21 19" fill="none" xmlns="http://www.w3.org/2000/svg">
<path d="M11.7825 16.6867H1.4175C1.24053 16.6866 1.07086 16.6162 0.945727 16.491C0.82059 16.3659 0.7502 16.1962 0.750002 16.0192V14.133C0.749272 13.4463 0.96514 12.7769 1.36688 12.2201C1.76863 11.6632 2.33578 11.2472 2.98763 11.0314L6.93075 9.7155C8.0824 9.33293 9.32682 9.33267 10.4786 9.71475L11.7611 10.1423C11.8544 10.1699 11.9547 10.1603 12.041 10.1154C12.1273 10.0705 12.1928 9.99379 12.2236 9.90152C12.2544 9.80925 12.2481 9.70862 12.2061 9.62087C12.1641 9.53312 12.0897 9.46513 11.9985 9.43125L10.7145 9.003C12.153 8.27887 13.4734 6.62475 13.4205 4.71412C13.4191 3.46429 12.922 2.26604 12.0382 1.38227C11.1545 0.498501 9.95621 0.00138959 8.70638 0C3.50588 0.16575 2.32013 6.80437 6.69525 9.00375L2.75063 10.32C1.94941 10.5854 1.25229 11.0968 0.75846 11.7813C0.264626 12.4658 -0.000778736 13.2886 1.71633e-06 14.1326V16.0189C0.000398782 16.3947 0.14987 16.755 0.415616 17.0208C0.681363 17.2865 1.04168 17.436 1.4175 17.4364H11.7825C11.882 17.4364 11.9773 17.3969 12.0477 17.3265C12.118 17.2562 12.1575 17.1608 12.1575 17.0614C12.1575 16.9619 12.118 16.8665 12.0477 16.7962C11.9773 16.7259 11.882 16.6867 11.7825 16.6867ZM4.74225 4.71412C4.74344 3.6632 5.16142 2.65566 5.9045 1.91251C6.64758 1.16936 7.65508 0.75129 8.706 0.75C13.9654 0.9675 13.9639 8.4615 8.706 8.67862C7.65502 8.67733 6.64746 8.25921 5.90437 7.51598C5.16128 6.77275 4.74334 5.76511 4.74225 4.71412Z" fill="white"/>
<path d="M16.3349 8.81836C15.0981 8.81965 13.9123 9.31155 13.0377 10.1861C12.1631 11.0607 11.6712 12.2465 11.6699 13.4834C11.926 19.6724 20.7449 19.6705 20.9999 13.4834C20.9986 12.2465 20.5067 11.0607 19.6321 10.1861C18.7576 9.31155 17.5718 8.81965 16.3349 8.81836ZM16.3349 17.3984C15.2968 17.3977 14.3014 16.985 13.5674 16.2509C12.8333 15.5169 12.4206 14.5215 12.4199 13.4834C12.6359 8.28961 20.0347 8.29111 20.2499 13.4834C20.2492 14.5215 19.8365 15.5169 19.1025 16.2509C18.3684 16.985 17.373 17.3977 16.3349 17.3984Z" fill="white"/>
<path d="M16.919 15.5484H16.709V12.7603C16.709 12.6608 16.6695 12.5654 16.5992 12.4951C16.5289 12.4248 16.4335 12.3853 16.334 12.3853H15.749C15.6496 12.3853 15.5542 12.4248 15.4839 12.4951C15.4135 12.5654 15.374 12.6608 15.374 12.7603C15.374 12.8597 15.4135 12.9551 15.4839 13.0254C15.5542 13.0957 15.6496 13.1353 15.749 13.1353H15.959V15.5484H15.749C15.6496 15.5484 15.5542 15.5879 15.4839 15.6582C15.4135 15.7285 15.374 15.8239 15.374 15.9234C15.374 16.0228 15.4135 16.1182 15.4839 16.1885C15.5542 16.2589 15.6496 16.2984 15.749 16.2984H16.919C17.0185 16.2984 17.1139 16.2589 17.1842 16.1885C17.2545 16.1182 17.294 16.0228 17.294 15.9234C17.294 15.8239 17.2545 15.7285 17.1842 15.6582C17.1139 15.5879 17.0185 15.5484 16.919 15.5484ZM16.8073 11.2419C16.8073 11.0907 16.7472 10.9457 16.6403 10.8388C16.5334 10.7319 16.3884 10.6719 16.2373 10.6719C16.0861 10.6719 15.9411 10.7319 15.8342 10.8388C15.7273 10.9457 15.6673 11.0907 15.6673 11.2419C15.6673 11.393 15.7273 11.538 15.8342 11.6449C15.9411 11.7518 16.0861 11.8119 16.2373 11.8119C16.3884 11.8119 16.5334 11.7518 16.6403 11.6449C16.7472 11.538 16.8073 11.393 16.8073 11.2419Z" fill="white"/>
</svg>
